<svg width="24" height="24" fill="none" xmlns="http://www.w3.org/2000/svg"><path d="M12 1C5.923 1 1 5.818 1 11.766c0 4.763 3.149 8.787 7.521 10.213.55.095.756-.228.756-.51 0-.257-.013-1.104-.013-2.006-2.764.498-3.479-.66-3.699-1.265-.124-.31-.66-1.265-1.128-1.52-.385-.203-.935-.7-.013-.714.866-.013 1.485.78 1.691 1.104.99 1.628 2.571 1.17 3.204.888.096-.7.385-1.171.701-1.44-2.447-.27-5.005-1.198-5.005-5.316 0-1.17.426-2.14 1.128-2.893-.11-.269-.495-1.372.11-2.853 0 0 .92-.282 3.024 1.104a10.43 10.43 0 0 1 2.75-.364c.936 0 1.87.122 2.75.364 2.104-1.4 3.025-1.104 3.025-1.104.605 1.48.22 2.584.11 2.853.702.754 1.128 1.71 1.128 2.893 0 4.132-2.571 5.047-5.019 5.316.399.336.743.982.743 1.992 0 1.44-.014 2.597-.014 2.96 0 .283.206.62.756.511a11.002 11.002 0 0 0 5.426-3.927A10.626 10.626 0 0 0 23 11.766C23 5.818 18.078 1 12 1Z" fill="#fff"/></svg>