<svg width="24" height="24" fill="none" xmlns="http://www.w3.org/2000/svg"><mask id="a" fill="#fff"><path fill-rule="evenodd" clip-rule="evenodd" d="M2 7.151v8.85a3 3 0 0 0 3 3h14a3 3 0 0 0 3-3v-8.85l-7.272 7.272a3.857 3.857 0 0 1-5.455 0L2 7.151Zm19.573-1.5a.86.86 0 0 1-.202.312l-7.552 7.552a2.571 2.571 0 0 1-3.637 0L2.631 5.963a.86.86 0 0 1-.203-.313A2.57 2.57 0 0 1 4.572 4.5h14.857a2.57 2.57 0 0 1 2.144 1.15Z"/></mask><path fill-rule="evenodd" clip-rule="evenodd" d="M2 7.151v8.85a3 3 0 0 0 3 3h14a3 3 0 0 0 3-3v-8.85l-7.272 7.272a3.857 3.857 0 0 1-5.455 0L2 7.151Zm19.573-1.5a.86.86 0 0 1-.202.312l-7.552 7.552a2.571 2.571 0 0 1-3.637 0L2.631 5.963a.86.86 0 0 1-.203-.313A2.57 2.57 0 0 1 4.572 4.5h14.857a2.57 2.57 0 0 1 2.144 1.15Z" fill="#fff"/><path d="m2 7.151.354-.353-.854-.854v1.207H2Zm20 .001h.5V5.945l-.853.853.353.354Zm-7.272 7.272.354.354-.354-.354Zm-5.455 0-.353.354.353-.354Zm12.098-8.46.353.353-.353-.354Zm.202-.313.469.172.087-.238-.14-.21-.416.276Zm-7.754 7.864-.354-.354.354.354Zm-3.637 0-.353.354.353-.354ZM2.631 5.963l.353-.353-.353.353Zm-.203-.313-.416-.276-.14.21.087.238.47-.172ZM2.5 16V7.151h-1v8.85h1ZM5 18.5A2.5 2.5 0 0 1 2.5 16h-1A3.5 3.5 0 0 0 5 19.5v-1Zm14 0H5v1h14v-1Zm2.5-2.5a2.5 2.5 0 0 1-2.5 2.5v1a3.5 3.5 0 0 0 3.5-3.5h-1Zm0-8.848V16h1V7.152h-1Zm.147-.354-7.272 7.273.707.707 7.272-7.272-.707-.708Zm-7.272 7.273a3.357 3.357 0 0 1-4.748 0l-.707.707a4.357 4.357 0 0 0 6.162 0l-.708-.707Zm-4.748 0L2.354 6.798l-.707.707 7.273 7.273.707-.707Zm12.097-7.754a1.36 1.36 0 0 0 .318-.494l-.939-.345a.361.361 0 0 1-.086.132l.707.707Zm-7.552 7.552 7.552-7.552-.707-.707-7.552 7.551.707.708Zm-4.343 0a3.07 3.07 0 0 0 4.343 0l-.707-.707a2.071 2.071 0 0 1-2.93 0l-.706.707ZM2.277 6.317l7.552 7.552.707-.707L2.984 5.61l-.707.707Zm-.318-.495c.066.18.172.349.318.495l.707-.707a.361.361 0 0 1-.086-.132l-.939.344ZM4.572 4a3.07 3.07 0 0 0-2.56 1.374l.833.553A2.069 2.069 0 0 1 4.572 5V4Zm14.857 0H4.572v1h14.857V4Zm2.56 1.374A3.069 3.069 0 0 0 19.43 4v1c.72 0 1.355.367 1.727.927l.833-.553Z" fill="#fff" fill-opacity=".3" mask="url(#a)"/></svg>