<svg width="24" height="24" fill="none" xmlns="http://www.w3.org/2000/svg"><path d="M13.947 5.073c-.7.703-.7 1.843 0 2.546l1.27 1.273c.254.255.566.418.894.488.35.075.674.39.577.736a9.535 9.535 0 0 1-2.476 4.22 9.492 9.492 0 0 1-4.24 2.43c-.289.076-.551-.19-.592-.486a1.794 1.794 0 0 0-.509-1.023l-1.269-1.273a1.791 1.791 0 0 0-2.538 0L2.526 16.53a1.804 1.804 0 0 0 0 2.546c.51.512.997 1.153 1.614 1.543.662.4 1.527.345 2.3.371 1.276.042 3.265-.043 4.547-.384a13.451 13.451 0 0 0 6.007-3.442 13.51 13.51 0 0 0 3.51-5.98c.42-1.51.496-2.823.496-4.629 0-.903-.013-1.794-.494-2.498a1.817 1.817 0 0 0-.213-.257l-1.269-1.273a1.791 1.791 0 0 0-2.538 0l-2.539 2.546Z" fill="#fff"/><path d="M10.036 17.007a9.741 9.741 0 0 0 4.351-2.493 9.783 9.783 0 0 0 2.542-4.33.754.754 0 0 0-.172-.7c-.15-.176-.368-.3-.594-.349-.282-.06-.55-.2-.77-.42l-1.269-1.273a1.554 1.554 0 0 1 0-2.192l2.539-2.546a1.541 1.541 0 0 1 2.184 0l1.269 1.273c.07.07.13.143.183.221.431.63.451 1.44.451 2.357 0 1.798-.076 3.085-.487 4.562a13.26 13.26 0 0 1-3.445 5.87 13.2 13.2 0 0 1-5.896 3.378c-1.246.331-3.207.417-4.474.375-.126-.004-.25-.006-.372-.008-.272-.005-.538-.01-.803-.036-.377-.038-.716-.118-1.002-.29-.282-.178-.54-.418-.798-.686a20.055 20.055 0 0 1-.323-.347c-.15-.163-.303-.329-.447-.474a1.554 1.554 0 0 1 0-2.193L5.24 14.16a1.541 1.541 0 0 1 2.184 0l1.27 1.273c.246.248.392.559.437.881a.886.886 0 0 0 .286.536.667.667 0 0 0 .618.157Z" stroke="#fff" stroke-opacity=".3" stroke-width=".5"/></svg>